/* XPM */
static char *result[] = {
/* columns rows colors chars-per-pixel */
"50 50 150 2 ",
"   c #000000",
".  c #0B0203",
"X  c #110005",
"o  c #1D0206",
"O  c #1D0209",
"+  c #24010B",
"@  c #2B010C",
"#  c #251306",
"$  c #291606",
"%  c #2B1C05",
"&  c #48020F",
"*  c #490115",
"=  c #48091A",
"-  c #55041A",
";  c #6C0219",
":  c #730714",
">  c #522D0C",
",  c #4C3308",
"<  c #623E0B",
"1  c #7E231F",
"2  c #7E2A1C",
"3  c #7F3717",
"4  c #7A3A15",
"5  c #7F3219",
"6  c #6C0321",
"7  c #750A23",
"8  c #7F0D25",
"9  c #7E1323",
"0  c #7E1C21",
"q  c #7E540D",
"w  c #7E4611",
"e  c #870224",
"r  c #8D022B",
"t  c #A3022A",
"y  c #A50131",
"u  c #A63F22",
"i  c #C50134",
"p  c #CA0234",
"a  c #C6023B",
"s  c #CB043E",
"d  c #D5023C",
"f  c #E40A2D",
"g  c #EB0434",
"h  c #FE043C",
"j  c #FE3B3F",
"k  c #80550D",
"l  c #AD561C",
"z  c #A64021",
"x  c #BD5222",
"c  c #E65A2E",
"v  c #FE453D",
"b  c #FE4F39",
"n  c #FF4D37",
"m  c #FE5633",
"M  c #FD5936",
"N  c #FF503A",
"B  c #FD6E2E",
"V  c #EB7426",
"C  c #FF702F",
"Z  c #FD7D29",
"A  c #FD7C27",
"S  c #FD6332",
"D  c #FD6F30",
"F  c #FD6B3E",
"G  c #FD7539",
"H  c #D60441",
"J  c #EB0B47",
"K  c #E90645",
"L  c #F00246",
"P  c #FF0244",
"I  c #FF034C",
"U  c #FF0B4E",
"Y  c #E11243",
"T  c #FF144C",
"R  c #FF1B4A",
"E  c #FF1545",
"W  c #FF0450",
"Q  c #FC0F53",
"!  c #FC1253",
"~  c #FF1D5F",
"^  c #FE2544",
"/  c #FE2A45",
"(  c #FE2248",
")  c #FE3242",
"_  c #FE3C40",
"`  c #FE3F4E",
"'  c #EB285B",
"]  c #FF2A5B",
"[  c #E4365F",
"{  c #FE3355",
"}  c #D53B66",
"|  c #FF2665",
" . c #FF2E66",
".. c #FF3061",
"X. c #FF3C76",
"o. c #FE4840",
"O. c #FD7D54",
"+. c #CB486E",
"@. c #FF4467",
"#. c #FE5F6C",
"$. c #FF4F7F",
"%. c #FE6B6F",
"&. c #FE7A6E",
"*. c #FE7975",
"=. c #E9921A",
"-. c #FF9F1C",
";. c #FFA01D",
":. c #EB8420",
">. c #FC8D23",
",. c #FD9128",
"<. c #FD8230",
"1. c #FC9D3E",
"2. c #FD8A4A",
"3. c #FDA349",
"4. c #FDA144",
"5. c #FE846B",
"6. c #FE9779",
"7. c #FF4B81",
"8. c #FF5C8C",
"9. c #FF6B8A",
"0. c #FE798E",
"q. c #FF6F9A",
"w. c #FF7092",
"e. c #FF79A0",
"r. c #FE998E",
"t. c #FF8194",
"y. c #FF8CAE",
"u. c #FF9FB9",
"i. c #FF93B3",
"p. c #FFA3BA",
"a. c #FEBEB0",
"s. c #FEC4AF",
"d. c #FECAB8",
"f. c #FED5B8",
"g. c #FFA7C0",
"h. c #FFB8CC",
"j. c #FEBED0",
"k. c #FFCBC6",
"l. c #FFD8CA",
"z. c #FDC8D5",
"x. c #FFD8D4",
"c. c #FFE8D7",
"v. c #FFE0E7",
"b. c #FFEEEC",
"n. c #FFE6EC",
"m. c #FFF4ED",
"M. c #FFEDF1",
"N. c #FFF8F7",
"B. c #FFFDFD",
"V. c None",
/* pixels */
"V.V.V.V.V.V.V.V.V.V.V.V.V.V.V.V.V.V.V.V.V.V.V.V.V.V.V.V.V.V.V.V.V.V.V.V.V.V.V.V.V.V.V.V.V.V.V.V.V.V.",
"V.V.V.V.V.V.V.V.V.V.V.V.V.V.V.V.V.V.V.V.V.V.V.V.V.V.V.V.V.V.V.V.V.V.V.V.V.V.V.V.V.V.V.V.V.V.V.V.V.V.",
"V.V.V.V.V.V.V.V.V.V.V.V.V.V.V.V.V.V.V.V.V.V.V.V.V.V.V.V.V.V.V.V.V.V.V.V.V.V.V.V.V.V.V.V.V.V.V.V.V.V.",
"V.V.V.V.V.V.V.V.V.V.V.V.V.V.V.V.V.V.V.V.V.V.V.V.V.V.V.V.V.V.V.V.V.V.V.V.V.V.V.V.V.V.V.V.V.V.V.V.V.V.",
"V.V.V.V.V.V.V.V.V.V.V.V.V.V.V.V.V.V.V.V.V.V.V.V.V.V.V.V.V.V.V.V.V.V.V.V.V.V.V.V.V.V.V.V.V.V.V.V.V.V.",
"V.V.V.V.V.V.V.V.V.V.V.V.V.V.V.V.V.V.V.V.V.V.V.V.V.V.V.V.V.V.V.V.V.V.V.V.V.V.V.V.V.V.V.V.V.V.V.V.V.V.",
"V.V.V.V.V.V.V.V.V.V.V.V.V.V.V.V.V.V.V.V.V.V.V.V.V.V.V.V.V.V.V.V.V.V.V.V.V.V.V.V.V.V.V.V.V.V.V.V.V.V.",
"V.V.V.V.V.V.V.V.V.V.V.V.V.V.V.V.V.V.V.V.V.V.V.V.V.V.V.V.V.V.V.V.V.V.V.V.V.V.V.V.V.V.V.V.V.V.V.V.V.V.",
"V.V.V.V.V.V.V.V.V.V.V.V.                  V.V.V.V.V.V.V.V.                  V.V.V.V.V.V.V.V.V.V.V.V.",
"V.V.V.V.V.V.V.V.V.V.V.V.                  V.V.V.V.V.V.V.V.                  V.V.V.V.V.V.V.V.V.V.V.V.",
"V.V.V.V.V.V.V.V.V.V.V.% q q q q k q q q q , V.V.V.V.V.V., q q q q k q q k q % V.V.V.V.V.V.V.V.V.V.V.",
"V.V.V.V.V.V.V.V.V.    % =.;.-.-.;.;.;.-.-.<     V.V.    < ;.-.-.-.-.-.-.;.=.%     V.V.V.V.V.V.V.V.V.",
"V.V.V.V.V.V.V.V.V.# $ > :.>.>.>.>.>.>.>.>.w $ $ V.V.$ $ w >.,.4.3.3.3.1.>.:.> $ # V.V.V.V.V.V.V.V.V.",
"V.V.V.V.V.V.V.    4 V V Z Z Z Z Z Z Z Z <.V V l . . l V V Z 2.c.m.m.N.f.<.Z V V 4     V.V.V.V.V.V.V.",
"V.V.V.V.V.V.V.    3 C C B B B B B B C B C C C x . . x B B B 2.m.B.B.B.l.G D F C 3     V.V.V.V.V.V.V.",
"V.V.V.V.V.V.V.    5 S S S S S S S S S S S S S c z z c S S S F 6.6.l.B.m.d.s.2.S 5     V.V.V.V.V.V.V.",
"V.V.V.V.V.V.V.    2 M M M M M M M M M M M M M M M M M M M M M m m a.B.B.B.N.5.m 2     V.V.V.V.V.V.V.",
"V.V.V.V.V.V.V.    2 N N b b b b b b b b N N b b N N b N b b b b b r.k.x.B.N.&.n e     V.V.V.V.V.V.V.",
"V.V.V.V.V.V.V.    1 v v v v v v v v v v v v v v v v v v v v v v v v v 0.N.N.*.v 5     V.V.V.V.V.V.V.",
"V.V.V.V.V.V.V.    0 j j j j _ _ _ _ j j j j _ j _ j j j j j _ j j j j %.M.m.%.j 2     V.V.V.V.V.V.V.",
"V.V.V.V.V.V.V.    0 ) ) j ) ) ) ) ) ) ) ) ) ) ) ) ) ) ) ) ) ) ) ) ) ) o.#.#.o.) 0     V.V.V.V.V.V.V.",
"V.V.V.V.V.V.V.    0 / / ^ ^ ^ / / / / / / / / / / / / / / / / / / / / / / / ( / 9     V.V.V.V.V.V.V.",
"V.V.V.V.V.V.V.    9 ( { 0.t.@.( ( ( ( ( ( ( ( ( ( ( ( ( ( ( ( ( ( ( ( ( ( ( ( ( 9     V.V.V.V.V.V.V.",
"V.V.V.V.V.V.V.    8 T @.M.B.9.E R R R R R R R R R R R R R R R R R R R R R T R R 8     V.V.V.V.V.V.V.",
"V.V.V.V.V.V.V.    7 Y [ z.n.w...] T T T T T T T T T T T T T T T T T T T T T Y Y 7     V.V.V.V.V.V.V.",
"V.V.V.V.V.V.V.V.V.O O = '  .p.n.p.! U U U T U U U Q U U T U T U U U U T U J = O O V.V.V.V.V.V.V.V.V.",
"V.V.V.V.V.V.V.V.V.    @ K W g.B.h.! W U U U W U U U U U U U U I U U W U W J +     V.V.V.V.V.V.V.V.V.",
"V.V.V.V.V.V.V.V.V.V.V.+ 6 6 +.q.e.i.y.| I I I I I I I I I W I W U I W s 6 6 + V.V.V.V.V.V.V.V.V.V.V.",
"V.V.V.V.V.V.V.V.V.V.V.V.    y I 7.B.N.X.I I I I W I W I I W I I I W W y     V.V.V.V.V.V.V.V.V.V.V.V.",
"V.V.V.V.V.V.V.V.V.V.V.V.    r a } z.j.8.X.| I I I I I I I W I W I H a r     V.V.V.V.V.V.V.V.V.V.V.V.",
"V.V.V.V.V.V.V.V.V.V.V.V.V.V.X . - Q ~ j.N.y.I I I I I I I I I I I - . X V.V.V.V.V.V.V.V.V.V.V.V.V.V.",
"V.V.V.V.V.V.V.V.V.V.V.V.V.V.    * L Q j.B.y.I I I I I I I I I L L *     V.V.V.V.V.V.V.V.V.V.V.V.V.V.",
"V.V.V.V.V.V.V.V.V.V.V.V.V.V.V.V.@ * - } 7. .P I I P I P P I d - * @ V.V.V.V.V.V.V.V.V.V.V.V.V.V.V.V.",
"V.V.V.V.V.V.V.V.V.V.V.V.V.V.V.V.V.  . i P P P P P P P P P I i .   V.V.V.V.V.V.V.V.V.V.V.V.V.V.V.V.V.",
"V.V.V.V.V.V.V.V.V.V.V.V.V.V.V.V.V.  . e t p P P P P P P p t e .   V.V.V.V.V.V.V.V.V.V.V.V.V.V.V.V.V.",
"V.V.V.V.V.V.V.V.V.V.V.V.V.V.V.V.V.V.V.    ; h h h h h h ;     V.V.V.V.V.V.V.V.V.V.V.V.V.V.V.V.V.V.V.",
"V.V.V.V.V.V.V.V.V.V.V.V.V.V.V.V.V.V.V.    ; g g h h g g ;     V.V.V.V.V.V.V.V.V.V.V.V.V.V.V.V.V.V.V.",
"V.V.V.V.V.V.V.V.V.V.V.V.V.V.V.V.V.V.V.V.V.V.@ & f f & @ V.V.V.V.V.V.V.V.V.V.V.V.V.V.V.V.V.V.V.V.V.V.",
"V.V.V.V.V.V.V.V.V.V.V.V.V.V.V.V.V.V.V.V.V.V.  O f f o   V.V.V.V.V.V.V.V.V.V.V.V.V.V.V.V.V.V.V.V.V.V.",
"V.V.V.V.V.V.V.V.V.V.V.V.V.V.V.V.V.V.V.V.V.V.V.O : : o V.V.V.V.V.V.V.V.V.V.V.V.V.V.V.V.V.V.V.V.V.V.V.",
"V.V.V.V.V.V.V.V.V.V.V.V.V.V.V.V.V.V.V.V.V.V.V.V.    V.V.V.V.V.V.V.V.V.V.V.V.V.V.V.V.V.V.V.V.V.V.V.V.",
"V.V.V.V.V.V.V.V.V.V.V.V.V.V.V.V.V.V.V.V.V.V.V.V.    V.V.V.V.V.V.V.V.V.V.V.V.V.V.V.V.V.V.V.V.V.V.V.V.",
"V.V.V.V.V.V.V.V.V.V.V.V.V.V.V.V.V.V.V.V.V.V.V.V.V.V.V.V.V.V.V.V.V.V.V.V.V.V.V.V.V.V.V.V.V.V.V.V.V.V.",
"V.V.V.V.V.V.V.V.V.V.V.V.V.V.V.V.V.V.V.V.V.V.V.V.V.V.V.V.V.V.V.V.V.V.V.V.V.V.V.V.V.V.V.V.V.V.V.V.V.V.",
"V.V.V.V.V.V.V.V.V.V.V.V.V.V.V.V.V.V.V.V.V.V.V.V.V.V.V.V.V.V.V.V.V.V.V.V.V.V.V.V.V.V.V.V.V.V.V.V.V.V.",
"V.V.V.V.V.V.V.V.V.V.V.V.V.V.V.V.V.V.V.V.V.V.V.V.V.V.V.V.V.V.V.V.V.V.V.V.V.V.V.V.V.V.V.V.V.V.V.V.V.V.",
"V.V.V.V.V.V.V.V.V.V.V.V.V.V.V.V.V.V.V.V.V.V.V.V.V.V.V.V.V.V.V.V.V.V.V.V.V.V.V.V.V.V.V.V.V.V.V.V.V.V.",
"V.V.V.V.V.V.V.V.V.V.V.V.V.V.V.V.V.V.V.V.V.V.V.V.V.V.V.V.V.V.V.V.V.V.V.V.V.V.V.V.V.V.V.V.V.V.V.V.V.V.",
"V.V.V.V.V.V.V.V.V.V.V.V.V.V.V.V.V.V.V.V.V.V.V.V.V.V.V.V.V.V.V.V.V.V.V.V.V.V.V.V.V.V.V.V.V.V.V.V.V.V.",
"V.V.V.V.V.V.V.V.V.V.V.V.V.V.V.V.V.V.V.V.V.V.V.V.V.V.V.V.V.V.V.V.V.V.V.V.V.V.V.V.V.V.V.V.V.V.V.V.V.V."
};
