/* XPM */
static char *result[] = {
/* columns rows colors chars-per-pixel */
"46 50 256 2 ",
"   c #030404",
".  c #0B0202",
"X  c #020B03",
"o  c #0A0A04",
"O  c #05060A",
"+  c #0B040B",
"@  c #050A0B",
"#  c #090A0C",
"$  c #120203",
"%  c #1C0201",
"&  c #140A01",
"*  c #13040B",
"=  c #130B0B",
"-  c #1A0B0C",
";  c #1C0608",
":  c #001203",
">  c #01120C",
",  c #011A0D",
"<  c #0A1705",
"1  c #14140D",
"2  c #1B1406",
"3  c #020412",
"4  c #030B13",
"5  c #0B0C13",
"6  c #0C0C1A",
"7  c #070617",
"8  c #130612",
"9  c #110C12",
"0  c #1B0B13",
"q  c #100E1C",
"w  c #1B0517",
"e  c #011312",
"r  c #0C1212",
"t  c #05171A",
"y  c #131214",
"u  c #191519",
"i  c #220300",
"p  c #280808",
"a  c #370904",
"s  c #28140C",
"d  c #230A13",
"f  c #350A15",
"g  c #241313",
"h  c #281819",
"j  c #3B101B",
"k  c #361918",
"l  c #38170A",
"z  c #0D210D",
"x  c #142117",
"c  c #392517",
"v  c #322611",
"b  c #090C21",
"n  c #160A22",
"m  c #0A1326",
"M  c #131324",
"N  c #181824",
"B  c #14162B",
"V  c #19192A",
"C  c #191627",
"Z  c #0F1630",
"A  c #371B24",
"S  c #221328",
"D  c #322624",
"F  c #292938",
"G  c #2B2C36",
"H  c #480506",
"J  c #461A08",
"K  c #48191A",
"L  c #561714",
"P  c #5B130E",
"I  c #640300",
"U  c #6A1906",
"Y  c #661417",
"T  c #701213",
"R  c #562309",
"E  c #4A2C15",
"W  c #5A2416",
"Q  c #512D0E",
"!  c #662816",
"~  c #75341B",
"^  c #70260F",
"/  c #580A23",
"(  c #431828",
")  c #571824",
"_  c #791526",
"`  c #6C1A2E",
"'  c #452629",
"]  c #552826",
"[  c #56332D",
"{  c #783B26",
"}  c #632633",
"|  c #6E232A",
" . c #794316",
".. c #5D402E",
"X. c #6E4C33",
"o. c #3A3948",
"O. c #2F3543",
"+. c #403F4D",
"@. c #444453",
"#. c #4D4C5B",
"$. c #636373",
"%. c #5C5B69",
"&. c #981D05",
"*. c #871818",
"=. c #9A1014",
"-. c #A81815",
";. c #95241B",
":. c #99331D",
">. c #8D2B0C",
",. c #A9290D",
"<. c #B53B08",
"1. c #A72918",
"2. c #B62318",
"3. c #A93419",
"4. c #B53918",
"5. c #AF3305",
"6. c #891B29",
"7. c #9A1A26",
"8. c #971C30",
"9. c #A71D35",
"0. c #B01C2B",
"q. c #9D252B",
"w. c #833823",
"e. c #902B2B",
"r. c #A72B26",
"t. c #B92628",
"y. c #A9352A",
"u. c #B63728",
"i. c #A92435",
"p. c #B42E3A",
"a. c #AE3937",
"s. c #B93534",
"d. c #C81E1E",
"f. c #C62717",
"g. c #C73617",
"h. c #D3340F",
"j. c #E73417",
"k. c #CE1B31",
"l. c #C82A28",
"z. c #D72C25",
"x. c #C73929",
"c. c #D4392B",
"v. c #D62936",
"b. c #CD3634",
"n. c #C73836",
"m. c #D53B38",
"M. c #CB2B37",
"N. c #F73A2A",
"B. c #E82F3B",
"V. c #E33733",
"C. c #E93727",
"Z. c #BA4819",
"A. c #A75119",
"S. c #BD511C",
"D. c #B0480E",
"F. c #BB6E1C",
"G. c #874735",
"H. c #8E4C29",
"J. c #AA4628",
"K. c #BA4424",
"L. c #B75428",
"P. c #BA4232",
"I. c #AC5E39",
"U. c #AD4D34",
"Y. c #965C1D",
"T. c #C5480C",
"R. c #CB491A",
"E. c #D44619",
"W. c #CB551C",
"Q. c #D6591A",
"!. c #CE4D09",
"~. c #EC5412",
"^. c #D3690A",
"/. c #DC631B",
"(. c #CA7D18",
"). c #D17319",
"_. c #E96916",
"`. c #E57A1B",
"'. c #EF6913",
"]. c #C84628",
"[. c #D4452A",
"{. c #D54A28",
"}. c #CB5627",
"|. c #D95626",
" X c #C8473A",
".X c #D84B36",
"XX c #C85734",
"oX c #D95736",
"OX c #FA472A",
"+X c #E55A27",
"@X c #E54937",
"#X c #F64635",
"$X c #E15433",
"%X c #E65736",
"&X c #F85937",
"*X c #E94527",
"=X c #CE6824",
"-X c #D76728",
";X c #DA7928",
":X c #C5673A",
">X c #D76636",
",X c #D37236",
"<X c #CA7024",
"1X c #E66829",
"2X c #FB6429",
"3X c #E97628",
"4X c #F5782A",
"5X c #E96837",
"6X c #F96739",
"7X c #E77735",
"8X c #F37334",
"9X c #F77A38",
"0X c #902549",
"qX c #B83848",
"wX c #A92C4D",
"eX c #D01F42",
"rX c #CF2C4A",
"tX c #E53748",
"yX c #F02E45",
"uX c #B85045",
"iX c #9B6244",
"pX c #BB6846",
"aX c #D35247",
"sX c #E54846",
"dX c #F94C4A",
"fX c #E85649",
"gX c #FC7B43",
"hX c #EE6B46",
"jX c #E74E66",
"kX c #CC6640",
"lX c #BF811A",
"zX c #D89016",
"xX c #E7871A",
"cX c #F3991B",
"vX c #F18B15",
"bX c #DEA519",
"nX c #E7A61B",
"mX c #F6A71B",
"MX c #F5B013",
"NX c #D68725",
"BX c #DD962A",
"VX c #E98725",
"CX c #F38D2D",
"ZX c #F48727",
"AX c #E59425",
"SX c #F79627",
"DX c #F78B34",
"FX c #EA9637",
"GX c #FA9636",
"HX c #E88533",
"JX c #E9A826",
"KX c #FFA727",
"LX c #FFA939",
"PX c #EDAF2E",
"IX c #FFA742",
"UX c #EDA340",
/* pixels */
"  # # O     # #   # o . # y 5   X @ @ @ @ @ O +   o X   @ 5 7 O @ r @   O # #   X O O O O O ",
"# 5 5 # O # # # # o # # O     r + + + + + # 8 9 0 9 9 @     > r @ # # O O # # O # # O # # + ",
"# # # @ O O # O # O O X O # 5 @ $ o o o     X   O O 7 q 5 X       O X O   O O O # # # # o # ",
"    O   O @ # @ O O # y # X   o 3 3 3 3 3 3 O 3 t t # y u - * $ O + # O       O # # # # 5 o ",
"O   O @ # # # # h     y u o   o < 2 s v Q Q Q Q & . . % ; - 8 5 * + # # # @ o # # # @ # O # ",
"O O O # # O   O   u D 1 o % c [  .H.Y.U.:XL.L.}.pXI.H.Y a % o > * +   O @ # 5 # @ # # O O O ",
"    @ # O     # h h o o c X.X.L T 6.8.9.i.r.q.7.&.3. XI.uXG.W p w .     @ X O . # @ O @ X O ",
"  O # y # # # y k g v [ E p J w.A.Z.u.Z.Z.Z.A.A.A.y.1.&.u.aX X3.A 0   @ e # O + O # # . O O ",
"e . d X :   j c < E k 4 A u.h.R.].oXoX}.XX>XXXXXXX4.D.J.y.*.r.fXOXR o X , b 3 < O # O # # # ",
"@ + *   @ d k h c X 3 { u.n.aXR.+X|.+X-X/.Q.=X1X1X>X Xu.D.D.3.T a.%X^ 5   $ q O @ + o O # O ",
"X # #   u A A r   : [ .Xj.R.,XjX:XL.A.Z.}.W.|.5XW.1X1X|.]. XU.J.~ V.dX! . & X 7 O # X # O # ",
"O #   + A A u @ 3 { c.z.oX=XS.].5.S.>X1XhXgXhX+X,X).3XHX%Xx.x.$X5._ aX*XY #   8 O O O # # O ",
"o X   g ( h + O ] p.j.E.:XaX<.D.AXLXIXGXVXAXFXBX'.1X>X<XNX4X|.2.@XG.U N.n.p t   # O X + # O ",
"#   + A A 8 . j l.c.oXXX1.y.7XnXUXNX^.D.T.<.R.Q.&X6X6X=X;XFXHX).rX^.>.i.*X>.q X O # # # # @ ",
"#   ; [ g X & | B.R.A.y.4.ZXIXFX[.x.l.v.yXyXk.k.rXkX1X2X+X}.;XFXu.!.>X6.t.sXH o O # @ # # O ",
"X   f } & : l wXg.aXqX4.vXLX3XD.f.c. X7.H i   : % H 7.c.OX2X4X7XDXp.oX5.8.jX;.$ O O # O @ @ ",
". : } d o X 7.c.[.T.a.(.MXgX3.C.dXr.l O 7 8 O X @ > . f q.yX6X(.xX1Xx.Q.;.s.h./ * @ r + O 8 ",
". : } * # - t.m.x.4.XXmXmX Xx.+Xr.P & X 4 + + X + :   $ K 0.N.;XvX9X].|.r.r.C._ * O 6 8 O # ",
"X s }   X L M.x.x.].;XmX-Xp.$X/.a .   X > $ . @ p @     > I z.hXxXDX}.E.K.-.#Xe.; X 9 * O 5 ",
"X K }   X 6.v.K.x.}.mXZXP.XX2X>.O   X : o . O @ * O # @ e i =.dX`.GX-Xf.oX7.N.i.f   9 0 O + ",
"X ) ) X   9.v.4..X^.MX5Xp.ZX'.H 7 3 4 o o     @ @ $ # @ 4   H tX`.ZXHXf.+X9.j.b.j   = 0 @ # ",
"X ) k X . eXl.u..X^.JXsXs.MXh.w 7 7 = + .   X @ , * # O w   o M.4XxXGXf.'.wXd.b.K   8 h @ + ",
": / 1 X % eXu.].{.3XnXV.=XnXf.3 o o + .   @ @ O e . X   w X   p.8XvXVXk.'.wXz.c.L   ; h @ O ",
"> ) : X i v.r..Xh.IXzXh.`.PXeX  o X O O 4 4 O . $   :   9 X $ q.8XSXzXv.~.0XV.l.) . ; h @ O ",
"X ( $ + y 0.v.{.c.zXPXz.VXLXg.. >   $ + > @ * f n 6   . q O % i.AXvX2Xu.|.f.rX2./ . z v .   ",
"X j = + 1 9.b.R.[.xXFXg.CXKX|.a * @ @ @ X +   X   , : p S O a V.xXGXh.].oXf.tX1./   z h * # ",
"X f - X . 7.c.x..X'.FXZ.GXKX9XU     + + + 5 , , o X     O . ^ &XAX9X,.5Xn.l.V.7.j o u h p 8 ",
": g - o . _ b.c..X~.FXF.4XKXAXS.; $ + 3 + + $ * $ i + t 4 H 4.3XGX].j.6X2.@Xc.*.9 & v k w 8 ",
"X = g X . L s.m.$X*XDX(./.LXnX9X*.p : t M w . X 6 w q 4 % -.2XBX3X4.&XE.t.dX,.` X p ' v w 8 ",
"O X d X $ p q.b.|..X8X(.Q.GXbXLXhX>.% X > > X , e O   a =.OXDXNXT.$X.X4.sXc.*.] X k ] h + 8 ",
"+ @ 0 X * . _ s.E..X+X;X-X4XbXKXIX1X,.I i o . i . i I 4.6X9X5X<.E.&X[.s.$X2._ f y K ] 2 X q ",
"+ @ d X 8   / qXT.aXj.).hX^.nXcXvXSXgX@Xt.7.6._ ;.z.OX3XNX(.{..XhXE.[.fXg.-.`   D ] W X   6 ",
"9 # @ @ . $ h ' l.@X@X|.Q.4XZXcXcXcXcXxX3X/.Q.|.1X1X-XQ.Q.+X1X6XZ..XdXc.,.U h m X.E % . 5 5 ",
"O   @ @ o   $ d v.P.}.%X*X}.=XHXSXSXCXVXVX3X4X8XW./.-X1X1X5X+X+XfX+XT.y.0XP a c [ l $   5 4 ",
"O O @ r >     . Y r.{..X[..XoX,XZXDXGXCXZXZX4X4X4X4X9X4X8X5X+X|.OXXXG.;.Y w v A.l &   O 4 4 ",
"9 @ @ @ # X o # X | m..X]..XoX{.3X7XCXCXCXAXxXxX4X`.3X1X1X5XhXoXg.2.qX] . ! iXc o     O 4 # ",
"9 O   O   @ @ @ 7 = W x.@X[.E.j.|.|.3X4XDXFXCXHX3X4X8X8XhX5XXX].w.r.I l X.H.J 4 O O O @ # O ",
"5 # O # @ O     w   : Q n.#X*XW.].].}.}.-X-X1X7X7X7X5X%X XK.1.>.a.K Q A.H.G t . 4 # 4 @ O   ",
"O 5 5 5 # O O O 3 o X : K a.aXL.[.].R.].Z.].].].u.u.4.1.1.3.:.;.) H.Y.[ 0 - 1 @ # # # o O O ",
"3 4 5 O O + + # X X + + O : W rXoX.X].].].u.u.s.y.y.u.y.y.a.U.U.Y. .h 3 t o   1 O O o   . # ",
"# # # y # # O O O O O O O O + 8 U w.U.kXaXoX%X+X|.|.|.>X:XI. .R y y # # + O O O O O @ # # 4 ",
"    O X # @ o # # # # # 7 o + O   . p K W ! ~ { G.{ ! L l s .   # # # @ . O o # O O @ # # O ",
"# o # # # # # X O O   @ # y # + @ @           X X O + O   O 4 m o # O . # o O o # # # # # O ",
"X # o   O X O   # @ O O # 5 9 y r 5 4 5 # 5 O       o o = # # # O o o O O # # o # # # # # # ",
"# # # @ O # # # 5 4 r # # O 5 5 * * * 9 u y 9 + 1 1 X .   . . . O # O # . @ O O O O O O # @ ",
"# 6 5 O O # # O   O 4 4 5 O O + = = o o o @     @ 4 O 3 3 7 5 4 # + # + 7 O O O O O # # # # ",
"O 6 q 5 3 6 7 3 4 4 t 6 6 6 6 b 6 4 4 4 e t M q 6 b m Z Z B m 7 6 q 6 q q 9 6 7 5 5 5 y 9 6 ",
"M V F F G o.o.O.O.F V M M M N C B B B B B B C n u u C M C u n n q M N N N N N N N N N N N N ",
"N G @.@.@.#.%.$.$.+.V 7 b B B M M M M M M M M M M M M M n m M M V G +.@.@.o.o.o.+.#.#.+.O.C ",
"7 N V C N M N N V M B M B B M 6 M M M M M m b M M m m M M M M M 6 M C C C M C V q N C B n b "
};
