/* XPM */
static char *_ac5131a042f4509c2b396066448804cDRjzodpspGzkkuPh[] = {
/* columns rows colors chars-per-pixel */
"100 100 2 1 ",
"  c None",
". c black",
/* pixels */
"                                                                                                    ",
"                                                                                                    ",
"                                                                                                    ",
"                                                                                                    ",
"                                           ...............                                          ",
"                                      .........................                                     ",
"                                   ...............................                                  ",
"                                 ....................................                               ",
"                              .........................................                             ",
"                            ........  ...................................                           ",
"                           .......  ......................................                          ",
"                         .......  .......     ..............................                        ",
"                        ..............   ............................. ......                       ",
"                      .............   .................................  ......                     ",
"                     ............  ......................................  .....                    ",
"                    ............ ......................     ..............  .....                   ",
"                   ........................................    ....... ..... .....                  ",
"                  .............................................  ....... ....  ....                 ",
"                 ................. ..... ........................  ......  ...  ....                ",
"                ................  ...  .......................  ..........  ...  ....               ",
"               ................ ...  ...........................  .........  ...  ....              ",
"              ...............  ..  ...............................  ......... ...  ....             ",
"             ............... ... .............  ...........  ................. ... .....            ",
"             .............. .......... ...    ...............  ................ ... ....            ",
"            ........................  ..  .....................  ............... ... ....           ",
"           .......................  .............................  .............  ........          ",
"           ......................  ................................ ............. ........          ",
"          ...................... ................................................. ........         ",
"          .................................................................................         ",
"         .... ........................................   ...................................        ",
"         ... ...............................................................................        ",
"        .... ........................................   .............. ......................       ",
"        ... ............................................  ............. .....................       ",
"       .... ..............................................  ............ .....................      ",
"       .... ..................................................................................      ",
"       ... ........................ ..........................................................      ",
"      .... ....................... ............................................................     ",
"      .... ...................... .. .....   ..........    ........................ ...........     ",
"      ... ......... ............ .. .....   ............... ....................... ...........     ",
"      ... ......... ... ........ .. .....  ................. ....................... ..........     ",
"     .... ........ .... ....... .. ..... ........................................... ...........    ",
"     ....... ..... ... ........ . .................................................. ...........    ",
"     ....... ..... ... ....... .. .............  ................................. .............    ",
"     ............. ... ....... .  ............................................ .................    ",
"     ...... ...... .... ........ ................... ......................... .... ............    ",
"     ...... ..... ..... ........ ........................ ............. ....... ... ............    ",
"     ...... ..... ..... ........ ........................ ............. ....... ... .............   ",
"    ....... ........... ............................................... ....... ... .............   ",
"    ....... ........................ ......... ....... ......... ...... ....... ... .............   ",
"    ....... .......................  ........................... ...... ....... ... .............   ",
"    ....... ........................ ........................... ...... ....... ... .............   ",
"    ....... ... .................... ..... . ........ ..........  ... . ........... .............   ",
"    ....... ... ....................  ....   ... ............... .... . ..... ........... .......   ",
"     .......... ..................... ..... . ........... .......... ........ ........... .. ....   ",
"     .......... ..................... ................ .. ................... ........... .. ...    ",
"     .......... ....................................  .. .................... ........... .. ...    ",
"     .................................................. ................................. .. ...    ",
"     ................................................................................... ... ...    ",
"     ................................................................................... ... ...    ",
"     ...................................................................................... ....    ",
"      ...................................................... .............................. ...     ",
"      ..................................................... ...................................     ",
"      .................. .................  .............. ....................................     ",
"      ................... .................. ...      .........................................     ",
"       ..................   ...................................................... ...........      ",
"       ...................   ......  ............................................. ...........      ",
"       ...................   .......  ........................................... ............      ",
"        ................... ............................................. ......  ...........       ",
"        .... ..................................        ..... ........... ....... ............       ",
"         ... ............................................   ................... ............        ",
"         .... ........................................    ..................................        ",
"          ...  ............................................................................         ",
"          .... ..................................................  ........................         ",
"           .... ................................................  ........................          ",
"           .... ............ ........................................... .................          ",
"            .... ............ ......................................... .................           ",
"             ........ ........  ............  .......................  .................            ",
"             ......... ........  ............    ...................  ..................            ",
"              .........  ........  ...........   .................. ...................             ",
"               .........  .........  .................................................              ",
"                .........  ..........  ................................... ..........               ",
"                 .......... ............................................. ..........                ",
"                  ..........  ....... .................................  ..........                 ",
"                   ........... ........   ............................  ..........                  ",
"                    ......................      .................................                   ",
"                     ..........................    .............................                    ",
"                      .........................................................                     ",
"                        .....................................................                       ",
"                         .....................  ............................                        ",
"                           ......................................  .......                          ",
"                            .................................   .........                           ",
"                              ..........................     ..........                             ",
"                                 ...............         ............                               ",
"                                   ...............................                                  ",
"                                      .........................                                     ",
"                                           ...............                                          ",
"                                                                                                    ",
"                                                                                                    ",
"                                                                                                    ",
"                                                                                                    "
};
