/* XPM */
static char *result[] = {
/* columns rows colors chars-per-pixel */
"50 50 140 2 ",
"   c #150D07",
".  c #1D0E04",
"X  c #110F0D",
"o  c #111111",
"O  c #121313",
"+  c #151515",
"@  c #181818",
"#  c #1B1B1B",
"$  c #1E1E1E",
"%  c #221206",
"&  c #241509",
"*  c #352619",
"=  c #39291D",
"-  c gray13",
";  c #252526",
":  c gray15",
">  c #2A2724",
",  c gray16",
"<  c #2F2C29",
"1  c gray18",
"2  c #2F2F2F",
"3  c #322924",
"4  c #322A24",
"5  c #312B26",
"6  c #312B27",
"7  c #372D26",
"8  c #2F2F30",
"9  c #2F3030",
"0  c gray19",
"q  c #313131",
"w  c #343535",
"e  c #353535",
"r  c #353536",
"t  c #373737",
"y  c #3D3631",
"u  c #3F3731",
"i  c #363738",
"p  c gray22",
"a  c #383939",
"s  c gray24",
"d  c #3D3D3E",
"f  c #3D3E3E",
"g  c #47250C",
"h  c #552C0E",
"j  c #4B2B13",
"k  c #482C16",
"l  c #402E1F",
"z  c #4B2F1A",
"x  c #4D2F18",
"c  c #502D14",
"v  c #592F10",
"b  c #4D311B",
"n  c #593214",
"m  c #513118",
"M  c #523118",
"N  c #533118",
"B  c #523219",
"V  c #52331A",
"C  c #55341B",
"Z  c #55341C",
"A  c #56351C",
"S  c #57351C",
"D  c #55361E",
"F  c #56361E",
"G  c #59351A",
"H  c #5D3718",
"J  c #69330D",
"K  c #6E360E",
"L  c #70370E",
"P  c #72370E",
"I  c #73380E",
"U  c #793B0F",
"Y  c #7A3C0F",
"T  c #673816",
"R  c #6E3D18",
"E  c #793B10",
"W  c #793C10",
"Q  c #7A3C10",
"!  c #4D3D2F",
"~  c #553822",
"^  c #403731",
"/  c #403934",
"(  c #443D38",
")  c #473E38",
"_  c #7B4116",
"`  c #484039",
"'  c #4A4039",
"]  c #7E4A20",
"[  c #7F4B21",
"{  c #464240",
"}  c #424344",
"|  c #434344",
" . c #434444",
".. c gray27",
"X. c #494A4A",
"o. c gray29",
"O. c #4B4A4A",
"+. c #4D4E4F",
"@. c #4E4E4F",
"#. c gray31",
"$. c #4F5051",
"%. c #505051",
"&. c #505151",
"*. c #515252",
"=. c #555556",
"-. c #585858",
";. c #606162",
":. c #854617",
">. c #864718",
",. c #814B1F",
"<. c #824B1F",
"1. c #8D4A18",
"2. c #8E4A18",
"3. c #8E4B19",
"4. c #8F4B19",
"5. c #8F4C19",
"6. c #904B19",
"7. c #904C19",
"8. c #804B20",
"9. c #814B20",
"0. c #804C22",
"q. c #8B5022",
"w. c #8C5223",
"e. c #895124",
"r. c #8B5224",
"t. c #8E5324",
"y. c #935524",
"u. c #935625",
"i. c #955624",
"p. c #945625",
"a. c #955625",
"s. c #955725",
"d. c #975724",
"f. c #965725",
"g. c #975725",
"h. c #965726",
"j. c #975825",
"k. c #965826",
"l. c #975826",
"z. c None",
/* pixels */
"z.z.z.z.z.z.z.z.z.z.z.z.z.z.z.z.z.z.z.z.z.z.z.z.z.z.z.z.z.z.z.z.z.z.z.z.z.z.z.z.z.z.z.z.z.z.z.z.z.z.",
"z.z.z.z.z.z.z.z.z.z.z.z.z.z.z.z.z.z.z.z.z.z.z.z.z.z.z.z.z.z.z.z.z.z.z.z.z.z.z.z.z.z.z.z.z.z.z.z.z.z.",
"z.z.z.z.z.z.z.z.z.z.z.z.z.z.z.z.z.z.z.z.z.z.z.z.z.z.z.z.z.z.z.z.z.z.z.z.z.z.z.z.z.z.z.z.z.z.z.z.z.z.",
"z.z.z.z.z.z.z.z.z.z.z.z.z.z.z.z.z.z.z.z.z.z.z.z.z.z.z.z.z.z.z.z.z.z.z.z.z.z.z.z.z.z.z.z.z.z.z.z.z.z.",
"z.z.z.z.z.z.z.z.z.z.z.z.z.z.z.z.z.z.z.z.z.z.z.z.z.z.z.z.z.z.z.z.z.z.z.z.z.z.z.z.z.z.z.z.z.z.z.z.z.z.",
"z.z.z.z.z.z.z.z.z.z.z.z.z.z.z.z.z.z.z.z.z.z.z.z.z.z.z.z.z.z.z.z.z.z.z.z.z.z.z.z.z.z.z.z.z.z.z.z.z.z.",
"z.z.z.z.z.z.z.z.z.z.z.z.z.z.z.z.z.z.z.z.z.z.z.z.z.z.z.z.z.z.z.z.z.z.z.z.z.z.z.z.z.z.z.z.z.z.z.z.z.z.",
"z.z.z.z.z.z.z.z.z.z.z.z.z.z.z.z.z.z.z.z.z.z.z.z.z.z.z.z.z.z.z.z.z.z.z.z.z.z.z.z.z.z.z.z.z.z.z.z.z.z.",
"z.z.z.z.z.z.z.z.z.z.z.z.z.z.z.z.z.z.z.z.z.z.z.z.z.z.z.z.z.z.z.z.z.z.z.z.z.z.z.z.z.z.z.z.z.z.z.z.z.z.",
"z.z.z.z.z.z.z.z.z.z.z.z.z.z.z.z.z.z.z.z.z.z.z., : 2 : $ z.z.z.z.z.z.z.z.z.z.z.z.z.z.z.z.z.z.z.z.z.z.",
"z.z.z.z.z.z.z.z.z.z.z.z.z.z.z.z.z.z.z.z.z.p a %.} i &.| p q z.z.z.z.z.z.z.z.z.z.z.z.z.z.z.z.z.z.z.z.",
"z.z.z.z.z.z.z.z.z.z.z.z.z.z.z.z.z.z.z.z.t ;.{ l N V x 7 -.o.1 z.z.z.z.z.z.z.z.z.z.z.z.z.z.z.z.z.z.z.",
"z.z.z.z.z.z.z.z.z.z.z.z.z.z.z.z.z.z.z.s O.! T w.6.f.1.[ B / =.+ z.z.z.z.z.z.z.z.z.z.z.z.z.z.z.z.z.z.",
"z.z.z.z.z.z.z.z.z.z.z.z.z.z.z.z.z.z.z.*.' 0.7.p.3.p.3.s.2.S ..- z.z.z.z.z.z.z.z.z.z.z.z.z.z.z.z.z.z.",
"z.z.z.z.z.z.z.z.z.z.z.z.z.z.z.z.z.z., e c u.3.p.3.p.3.p.4.] ` X.z.z.z.z.z.z.z.z.z.z.z.z.z.z.z.z.z.z.",
"z.z.z.z.z.z.z.z.z.z.z.z.z.z.z.z.z.z.f ( P s.3.p.3.p.3.p.3.y.~ $.# z.z.z.z.z.z.z.z.z.z.z.z.z.z.z.z.z.",
"z.z.z.z.z.z.z.z.z.z.z.z.z.z.z.z.z.z.; 4 Q s.3.p.3.p.3.p.3.s.m 8 o z.z.z.z.z.z.z.z.z.z.z.z.z.z.z.z.z.",
"z.z.z.z.z.z.z.z.z.z.z.z.z.z.z.z.z.z.w u U s.3.p.3.p.3.p.4.d.C | @ z.z.z.z.z.z.z.z.z.z.z.z.z.z.z.z.z.",
"z.z.z.z.z.z.z.z.z.z.z.z.z.z.z.z.z.z.w u U s.3.p.3.p.3.a.R D =  .@ z.z.z.z.z.z.z.z.z.z.z.z.z.z.z.z.z.",
"z.z.z.z.z.z.z.z.z.z.z.z.z.z.z.z.z.z.; 3 E s.3.p.3.p.3.a.G 6 > 0 o z.z.z.z.z.z.z.z.z.z.z.z.z.z.z.z.z.",
"z.z.z.z.z.z.z.z.z.z.z.z.z.z.z.z.z.z.d ) U s.3.p.3.p.3.p.>.<.b @.# z.z.z.z.z.z.z.z.z.z.z.z.z.z.z.z.z.",
"z.z.z.z.z.z.z.z.z.z.z.z.z.z.z.z.z.z.; 3 W l.5.p.3.p.3.p.4.g.M 8 o z.z.z.z.z.z.z.z.z.z.z.z.z.z.z.z.z.",
"z.z.z.z.z.z.z.z.z.z.z.z.z.z.z.z.z.z.w ^ I n h t.3.p.3.p.3.i.Z | @ z.z.z.z.z.z.z.z.z.z.z.z.z.z.z.z.z.",
"z.z.z.z.z.z.z.z.z.z.z.z.z.z.z.z.z.z.w ^ K j g e.4.p.3.p.3.i.Z | @ z.z.z.z.z.z.z.z.z.z.z.z.z.z.z.z.z.",
"z.z.z.z.z.z.z.z.z.z.z.z.z.z.z.z.z.z.; 4 L H v r.4.p.3.p.3.s.m 8 o z.z.z.z.z.z.z.z.z.z.z.z.z.z.z.z.z.",
"z.z.z.z.z.z.z.z.z.z.z.z.z.z.z.z.z.z.d ) U q.:.p.3.p.3.p.3.i.F +.# z.z.z.z.z.z.z.z.z.z.z.z.z.z.z.z.z.",
"z.z.z.z.z.z.z.z.z.z.z.z.z.z.z.z.z.z.; 3 E h.4.p.3.p.3.p.3.s.m 8 o z.z.z.z.z.z.z.z.z.z.z.z.z.z.z.z.z.",
"z.z.z.z.z.z.z.z.z.z.z.z.z.z.z.z.z.z.w u U s.3.p.3.p.3.p.3.i.Z | @ z.z.z.z.z.z.z.z.z.z.z.z.z.z.z.z.z.",
"z.z.z.z.z.z.z.z.z.z.z.z.z.z.z.z.z.z.w u U s.3.p.3.p.3.p.4.d.C | @ z.z.z.z.z.z.z.z.z.z.z.z.z.z.z.z.z.",
"z.z.z.z.z.z.z.z.z.z.z.z.z.z.z.z.z.z.; 3 E s.3.p.3.p.3.a.R D * 0 o z.z.z.z.z.z.z.z.z.z.z.z.z.z.z.z.z.",
"z.z.z.z.z.z.z.z.z.z.z.z.z.z.z.z.z.z.d ) U s.3.p.3.p.3.a.G 5 < #.# z.z.z.z.z.z.z.z.z.z.z.z.z.z.z.z.z.",
"z.z.z.z.z.z.z.z.z.z.z.z.z.z.z.z.z.z.; 3 E s.3.p.3.p.3.p.>.<.k 9 o z.z.z.z.z.z.z.z.z.z.z.z.z.z.z.z.z.",
"z.z.z.z.z.z.z.z.z.z.z.z.z.z.z.z.z.z.w ^ Y k.4.s.4.s.4.s.7.j.A | @ z.z.z.z.z.z.z.z.z.z.z.z.z.z.z.z.z.",
"z.z.z.z.z.z.z.z.z.z.z.z.z.z.z.z.z.z.r y J 9._ 8._ 8._ 8._ ,.z  .@ z.z.z.z.z.z.z.z.z.z.z.z.z.z.z.z.z.",
"z.z.z.z.z.z.z.z.z.z.z.z.z.z.z.z.z.z.z.X . & % & % & % & % &   O z.z.z.z.z.z.z.z.z.z.z.z.z.z.z.z.z.z.",
"z.z.z.z.z.z.z.z.z.z.z.z.z.z.z.z.z.z.z.z.z.z.z.z.z.z.z.z.z.z.z.z.z.z.z.z.z.z.z.z.z.z.z.z.z.z.z.z.z.z.",
"z.z.z.z.z.z.z.z.z.z.z.z.z.z.z.z.z.z.z.z.z.z.z.z.z.z.z.z.z.z.z.z.z.z.z.z.z.z.z.z.z.z.z.z.z.z.z.z.z.z.",
"z.z.z.z.z.z.z.z.z.z.z.z.z.z.z.z.z.z.z.z.z.z.z.z.z.z.z.z.z.z.z.z.z.z.z.z.z.z.z.z.z.z.z.z.z.z.z.z.z.z.",
"z.z.z.z.z.z.z.z.z.z.z.z.z.z.z.z.z.z.z.z.z.z.z.z.z.z.z.z.z.z.z.z.z.z.z.z.z.z.z.z.z.z.z.z.z.z.z.z.z.z.",
"z.z.z.z.z.z.z.z.z.z.z.z.z.z.z.z.z.z.z.z.z.z.z.z.z.z.z.z.z.z.z.z.z.z.z.z.z.z.z.z.z.z.z.z.z.z.z.z.z.z.",
"z.z.z.z.z.z.z.z.z.z.z.z.z.z.z.z.z.z.z.z.z.z.z.z.z.z.z.z.z.z.z.z.z.z.z.z.z.z.z.z.z.z.z.z.z.z.z.z.z.z.",
"z.z.z.z.z.z.z.z.z.z.z.z.z.z.z.z.z.z.z.z.z.z.z.z.z.z.z.z.z.z.z.z.z.z.z.z.z.z.z.z.z.z.z.z.z.z.z.z.z.z.",
"z.z.z.z.z.z.z.z.z.z.z.z.z.z.z.z.z.z.z.z.z.z.z.z.z.z.z.z.z.z.z.z.z.z.z.z.z.z.z.z.z.z.z.z.z.z.z.z.z.z.",
"z.z.z.z.z.z.z.z.z.z.z.z.z.z.z.z.z.z.z.z.z.z.z.z.z.z.z.z.z.z.z.z.z.z.z.z.z.z.z.z.z.z.z.z.z.z.z.z.z.z.",
"z.z.z.z.z.z.z.z.z.z.z.z.z.z.z.z.z.z.z.z.z.z.z.z.z.z.z.z.z.z.z.z.z.z.z.z.z.z.z.z.z.z.z.z.z.z.z.z.z.z.",
"z.z.z.z.z.z.z.z.z.z.z.z.z.z.z.z.z.z.z.z.z.z.z.z.z.z.z.z.z.z.z.z.z.z.z.z.z.z.z.z.z.z.z.z.z.z.z.z.z.z.",
"z.z.z.z.z.z.z.z.z.z.z.z.z.z.z.z.z.z.z.z.z.z.z.z.z.z.z.z.z.z.z.z.z.z.z.z.z.z.z.z.z.z.z.z.z.z.z.z.z.z.",
"z.z.z.z.z.z.z.z.z.z.z.z.z.z.z.z.z.z.z.z.z.z.z.z.z.z.z.z.z.z.z.z.z.z.z.z.z.z.z.z.z.z.z.z.z.z.z.z.z.z.",
"z.z.z.z.z.z.z.z.z.z.z.z.z.z.z.z.z.z.z.z.z.z.z.z.z.z.z.z.z.z.z.z.z.z.z.z.z.z.z.z.z.z.z.z.z.z.z.z.z.z.",
"z.z.z.z.z.z.z.z.z.z.z.z.z.z.z.z.z.z.z.z.z.z.z.z.z.z.z.z.z.z.z.z.z.z.z.z.z.z.z.z.z.z.z.z.z.z.z.z.z.z."
};
