/* XPM */
static char *result[] = {
/* columns rows colors chars-per-pixel */
"29 49 162 2 ",
"   c #010001",
".  c #040C04",
"X  c #060708",
"o  c #0A020A",
"O  c #090B0D",
"+  c #070608",
"@  c #11050D",
"#  c #061205",
"$  c #081807",
"%  c #091C08",
"&  c #0D0910",
"*  c #140513",
"=  c #170619",
"-  c #1B071D",
";  c #1A0815",
":  c #0D1114",
">  c #12161A",
",  c #210B1B",
"<  c #0B220A",
"1  c #0E2B0C",
"2  c #11350F",
"3  c #12390F",
"4  c #133C10",
"5  c #171E22",
"6  c #2B0F23",
"7  c #260928",
"8  c #290A2C",
"9  c #240826",
"0  c #2E1026",
"q  c #34122B",
"w  c #39142F",
"e  c #2E0B32",
"r  c #320C36",
"t  c #360D3A",
"y  c #3A0E3F",
"u  c #3D1632",
"i  c #1D262A",
"p  c #222C31",
"a  c #273339",
"s  c #29363A",
"d  c #2E3B3F",
"f  c #411736",
"g  c #46193A",
"h  c #164412",
"j  c #194D15",
"k  c #174914",
"l  c #1C5717",
"z  c #1D5D19",
"x  c #1C5817",
"c  c #1F621A",
"v  c #20661B",
"b  c #21681B",
"n  c #3E0F43",
"m  c #2F3F45",
"M  c #421146",
"N  c #45114A",
"B  c #49114E",
"V  c #551E46",
"C  c #4D1253",
"Z  c #56145C",
"A  c #551756",
"S  c #5D214D",
"D  c #642352",
"F  c #6A2557",
"G  c #5D1664",
"H  c #601767",
"J  c #611768",
"K  c #65196C",
"L  c #661C68",
"P  c #6B1A72",
"I  c #741C7C",
"U  c #721E73",
"Y  c #6D2361",
"T  c #73246A",
"R  c #324146",
"E  c #324249",
"W  c #3B4E56",
"Q  c #3E525B",
"!  c #45575D",
"~  c #435962",
"^  c #475F69",
"/  c #4B646E",
"(  c #4D6671",
")  c #4E6873",
"_  c #516B76",
"`  c #842F6D",
"'  c #883072",
"]  c #9A377F",
"[  c #97367C",
"{  c #771D80",
"}  c #7B1E84",
"|  c #7F1F88",
" . c #5F7E8B",
".. c #83208C",
"X. c #822383",
"o. c #872091",
"O. c #8D2297",
"+. c #8F2299",
"@. c #93249B",
"#. c #A73B89",
"$. c #AE399A",
"%. c #9624A1",
"&. c #9A25A5",
"*. c #9F26AB",
"=. c #A227AE",
"-. c #A627B3",
";. c #A728B3",
":. c #A929B4",
">. c #B02EB4",
",. c #B42FB8",
"<. c #B733B6",
"1. c #BB35B6",
"2. c #BF38B7",
"3. c #C13AB7",
"4. c #C53CB9",
"5. c #CA3FB9",
"6. c #BC439A",
"7. c #B34093",
"8. c #C1459F",
"9. c #C446A1",
"0. c #CF4AAA",
"q. c #C847A4",
"w. c #D34BAD",
"e. c #CD41B9",
"r. c #DB4EB4",
"t. c #D345BB",
"y. c #DD4CBC",
"u. c #D44AB3",
"i. c #DF50B7",
"p. c #DF50B8",
"a. c #E14DBF",
"s. c #E652BD",
"d. c #E853BF",
"f. c #EA53C1",
"g. c #E651C0",
"h. c #668797",
"j. c #6C8F9F",
"k. c #6E90A1",
"l. c #769CAD",
"z. c #7795A2",
"x. c #7EA6B9",
"c. c #79A0B2",
"v. c #96AAAF",
"b. c #80A8BC",
"n. c #85AEC2",
"m. c #8AB6CA",
"M. c #88B2C7",
"N. c #91BACD",
"B. c #96C5DD",
"V. c #98C7DF",
"C. c #9BC9DF",
"Z. c #9BC9E1",
"A. c #ABD4E7",
"S. c #B1D5E6",
"D. c #C1D3D8",
"F. c #C5DDE8",
"G. c #D4E4E9",
"H. c #DCECF3",
"J. c #D2E6F0",
"K. c #E2EFF3",
"L. c #FDFEFF",
"P. c None",
/* pixels */
"P.P.P.P.P.P.P.P.P.P.P.P.P.P.P.P.P.P.P.P.        P.P.P.P.P.",
"P.P.P.P.P.P.P.P.P.P.P.P.P.P.P.P.P.P.      . .     P.P.P.P.",
"P.P.P.P.P.P.P.P.P.P.P.P.P.P.P.P.P.    $ 4 l j .   P.P.P.P.",
"P.P.P.                    P.P.P.  . 1 l b b z $   P.P.P.P.",
"P.P.    $ 1 4 3 1 % .             2 c c c z x #   P.P.P.P.",
"P.P.  . j b v v z z z h < .     % z v x z v k     P.P.P.P.",
"P.P.    % z v c z l c b v j .   h b c z v z <   P.P.P.P.P.",
"P.P.P.    % j z c v z z b b 3 . z c z c c 3 .   P.P.P.P.P.",
"P.P.P.P.    . 4 z v v c c c l 3 v c v c 3 X   P.P.P.P.P.P.",
"P.P.P.P.P.      # 1 3 3 1 2 l c x j 4 $     P.P.P.P.P.P.P.",
"P.P.P.P.P.P.P.              2 z % .       P.P.P.P.P.P.P.P.",
"P.P.P.P.P.P.P.P.P.P.    X   % h .       P.P.P.P.P.P.P.P.P.",
"P.P.P.P.P.P.P.P.P.P.          .           P.P.P.P.P.P.P.P.",
"P.P.P.P.P.P.P.P.P.    o 0 u q q q 6 *         P.P.P.P.P.P.",
"P.P.P.P.P.P.P.P.    , ] w.i.r.r.i.w.8.` 6       P.P.P.P.P.",
"P.P.P.P.P.P.P.    , 7.f.d.d.d.d.d.d.f.f.w.V +     P.P.P.P.",
"P.P.P.P.P.P.P.    T d.s.d.g.d.d.r.0.8.8.q.8.f       P.P.P.",
"P.P.P.P.P.P.P.  = $.d.s.d.q.` V q , @ @ @ ; o       P.P.P.",
"P.P.P.P.P.P.    M u.s.d.6.6       : i a R d i O       P.P.",
"P.P.P.P.P.P.    L y.d.d.D   O ~ k.b.N.F.G.G.D.v.! O     P.",
"P.P.P.P.P.P.  + X.y.d.s.f   a l.Z.C.S.L.L.L.L.L.K.z.5     ",
"P.P.P.P.      * @.y.s.r.q . W  .B.V.Z.F.J.H.H.H.K.A.h.+   ",
"P.P.        . t ;.y.s.r.q X ! / l.B.V.V.B.Z.V.Z.C.C.b.>   ",
"P.    6 S w   N :.y.s.i.g   W / _ z.n.m.m.M.n.x.l.j._ :   ",
"    ; 6.s.]   N :.y.s.d.F   p / / / ) ) _ _ ( / / / m     ",
"    f s.s.'   M :.t.s.d.#.+ + s / ( ( / / / / / ~ s O     ",
"    A 3.<.L   M :.e.s.d.i.g     > E Q ! ~ Q E p O       P.",
"    G :.;.G   N ;.4.s.s.d.8.w       X O O X     ; @     P.",
"    K :.:.G   N :.3.d.s.s.d.w.` f , * * , w D ] 9.S     P.",
"    I :.:.G   C :.1.s.s.s.s.s.d.p.0.8.8.w.r.d.d.f.Y     P.",
"  + { :.:.G   C :.>.p.s.s.s.s.s.s.d.d.d.d.s.d.d.g.T     P.",
"  o | ;.:.G   C :.:.t.s.s.s.s.s.s.s.s.s.s.s.a.a.g.U     P.",
"  o ..;.:.G   C :.;.3.d.s.s.s.s.s.s.s.s.s.s.s.s.t.P     P.",
"  o ..;.:.G   C :.;.:.y.s.s.s.s.s.s.s.s.s.s.s.s.4.P     P.",
"  o | ;.;.H   C :.;.;.3.s.s.s.s.s.s.a.d.s.s.s.s.,.J     P.",
"  + I :.:.J   B :.;.;.:.4.y.s.s.s.s.s.d.s.s.y.2.:.Z     P.",
"    K :.:.P   M ;.;.;.;.;.>.<.1.3.5.t.t.5.3.>.-.:.N     P.",
"    N :.:.I   n ;.;.;.;.;.-.-.-.;.;.:.:.;.-.-.-.=.e     P.",
"    * { *.I   y ;.;.;.;.;.;.;.;.;.:.:.:.:.:.:.:.%.=   P.P.",
"P.    o 7 -   e =.;.;.;.;.;.} N G P { } } { @.:.| o   P.P.",
"P.P.          9 =.;.:.;.;.=.8       + + * B %.:.G     P.P.",
"P.P.P.P.P.    - &.;.;.;.:.@.*         = } -.;.;.N     P.P.",
"P.P.P.P.P.P.  = @.;.;.;.;.O.*   P.    t -.;.;.-.t     P.P.",
"P.P.P.P.P.P.  o o.;.;.;.:.O.@   P.    M :.-.;.-.y     P.P.",
"P.P.P.P.P.P.  + } :.-.-.:.+.*   P.P.  8 %.;.;.&.e   P.P.P.",
"P.P.P.P.P.P.    J :.:.:.;.P o   P.P.    9 n y 9     P.P.P.",
"P.P.P.P.P.P.    = Z I P n o     P.P.P.            P.P.P.P.",
"P.P.P.P.P.P.P.                P.P.P.P.P.P.P.P.P.P.P.P.P.P.",
"P.P.P.P.P.P.P.P.            P.P.P.P.P.P.P.P.P.P.P.P.P.P.P."
};
