/* XPM */
static char *result[] = {
/* columns rows colors chars-per-pixel */
"50 61 91 1 ",
"  c #010101",
". c #0B0202",
"X c #050708",
"o c #060909",
"O c #090C0D",
"+ c #140202",
"@ c #1C0303",
"# c #0F1416",
"$ c #101416",
"% c #13191B",
"& c #230404",
"* c #2B0404",
"= c #330505",
"- c #3B0506",
"; c #161E21",
": c #1C2629",
"> c #1E292D",
", c #212C31",
"< c #263439",
"1 c #29373C",
"2 c #430606",
"3 c #4B0707",
"4 c #540707",
"5 c #560708",
"6 c #560808",
"7 c #5C0808",
"8 c #630808",
"9 c #6B0909",
"0 c #760A0A",
"q c #790A0A",
"w c #2D3C42",
"e c #2F4046",
"r c #33454C",
"t c #374951",
"y c #394D54",
"u c #3E525B",
"i c #41565F",
"p c #415760",
"a c #455D67",
"s c #465F69",
"d c #47606A",
"f c #4A646E",
"g c #4B6670",
"h c #4E6974",
"j c #526D79",
"k c #54707C",
"l c #830B0B",
"z c #8A0C0C",
"x c #930D0D",
"c c #9A0D0D",
"v c #A50E0E",
"b c #AC0F0F",
"n c #B20F0F",
"m c #B30F10",
"M c #B61010",
"N c #BC1010",
"B c #C51111",
"V c #C81111",
"C c #597682",
"Z c #5A7985",
"A c #5E7E8A",
"S c #61818E",
"D c #648593",
"F c #678997",
"G c #6C909F",
"H c #7A97A4",
"J c #769BAB",
"K c #7AA1B2",
"L c #81A9BA",
"P c #88B3C6",
"I c #8BB7CA",
"U c #8EBACE",
"Y c #9AB7C3",
"T c #93C1D5",
"R c #97C6DB",
"E c #98C7DC",
"W c #99C8DD",
"Q c #A5CDDF",
"! c #AECDDA",
"~ c #A5CEE0",
"^ c #A8D0E1",
"/ c #B4D7E6",
"( c #BFDDE9",
") c #C2DEEA",
"_ c #C5E1EC",
"` c #CCE3ED",
"' c #D0E7F1",
"] c #E9F4F7",
"[ c #EDF7FB",
"{ c #FCFEFD",
"} c None",
/* pixels */
"}}}}}}}}}}}}}}}}}}}}}}}}}}}}}}}}}}}}}}}}}}}}}}}}}}",
"}}}}}}}}}}}}}}}}}}}}}}}}}}}}}}}}}}}}}}}}}}}}}}}}}}",
"}}}}}}}}}}}}}}}}}}}}}}}}}}}}}}}}}}}}}}}}}}}}}}}}}}",
"}}}}}}}}}}}}}}}}}}}}}}}}}}}}}}}}}}}}}}}}}}}}}}}}}}",
"}}}}}}}}}}}}}}}}}}}}}}}}}}}}}}}}}}}}}}}}}}}}}}}}}}",
"}}}}}}}}}}}}}}}}}}}}}}}}}}}}}}}}}}}}}}}}}}}}}}}}}}",
"}}}}}}}}}}}}}}}}}}}}}}}}}}}}}}}}}}}}}}}}}}}}}}}}}}",
"}}}}}}}}}}}}}}}}}}}}}}}}}}}}}}}}}}}}}}}}}}}}}}}}}}",
"}}}}}}}}}}}}}}}}}}}}}         }}}}}}}}}}}}}}}}}}}}",
"}}}}}}}}}}}}}}}}}}}              }}}}}}}}}}}}}}}}}",
"}}}}}}}}}}}}}}}}}}    +@@@&&@+     }}}}}}}}}}}}}}}",
"}}}}}}}}}}}}}}}}}   &0vnnmMMMc0*    }}}}}}}}}}}}}}",
"}}}}}}}}}}}}}}}}   *vVBBBBBBBBVM4    }}}}}}}}}}}}}",
"}}}}}}}}}}}}}}}}  +cBBBBBBVBVVVVB9.   }}}}}}}}}}}}",
"}}}}}}}}}}}}}}}   7BBBBBVNbczzllzz*   }}}}}}}}}}}}",
"}}}}}}}}}}}}}}}  .cVBBBb8=@.           }}}}}}}}}}}",
"}}}}}}}}}}}}}}}  *nBBBv*   #:1ryiit>O   }}}}}}}}}}",
"}}}}}}}}}}}}}}}  2MBBB4  %CLUTQ()))!H,   }}}}}}}}}",
"}}}}}}}}}}}}}}}  6MBBN* ojWWE~]{{{{{[Y,  }}}}}}}}}",
"}}}}}}}}}}}}}}  .8MBBN& :CTEEQ]{{{{{{'J$  }}}}}}}}",
"}}}}}}}}}}}     .9nBBm& 1hJREE~//)``)QRi  }}}}}}}}",
"}}}}}}}}}       @0mBBM& wfhKREEERREERRPi  }}}}}}}}",
"}}}}}}}}   +=-+ &0mBBM& <ffhGIRRRRUPKFjw  }}}}}}}}",
"}}}}}}}}  .zBB- =qnBBB- %affdjADSZkhfff1  }}}}}}}}",
"}}}}}}}}  =BBN= -qbBBV9  1fffffddfffffrO  }}}}}}}}",
"}}}}}}}}  6VBN* -0vBBBv@ Xwdfgffgffdy>O   }}}}}}}}",
"}}}}}}}}  4bNv& -0cBBBB9   ;eupitr1%X    }}}}}}}}}",
"}}}}}}}}  4qq9+ -0zBBBBN3    XOXX    +   }}}}}}}}}",
"}}}}}}}} .5qq9+ 20lMBBBBMq-+    +@=8xz. }}}}}}}}}}",
"}}}}}}}}  6qq9+ 2qqbBBBBVBBvxllzcbBBVv+  }}}}}}}}}",
"}}}}}}}}  6qq9+ 2qqcBBBBBBBBVBBVVBBBVx.  }}}}}}}}}",
"}}}}}}}} .6qq9. 2qqzBBBBBBBBBBBBBBBBBz.  }}}}}}}}}",
"}}}}}}}} .8q09. 300qMVBBBBBBBBBBBBBBBq+  }}}}}}}}}",
"}}}}}}}} .8qq9. -q00vVBBBBBBBBBBBBBBNq@  }}}}}}}}}",
"}}}}}}}} .80q9+ -000xBBBBBBBBBBBBBBBb0+  }}}}}}}}}",
"}}}}}}}} .8qq9+ 3q00qmBBBBBBBBBBBBBBx9+  }}}}}}}}}",
"}}}}}}}}  80q9@ 300q0zMBBBBBBBBBBBBbq9.  }}}}}}}}}",
"}}}}}}}} .7qq0@ 2q0000zbNBBBBBBBBNblq7.  }}}}}}}}}",
"}}}}}}}}  6q00& 2q00000qzcvbnmmnvzq0q4   }}}}}}}}}",
"}}}}}}}}  2q00& -q000000000qqqqq0000q3  }}}}}}}}}}",
"}}}}}}}}  +8qq* -q0q000qqq0q000000q00=  }}}}}}}}}}",
"}}}}}}}}   @23+ *000q000088900q0000q9+  }}}}}}}}}}",
"}}}}}}}}}       *0q000002..+@&*=&-9q7.  }}}}}}}}}}",
"}}}}}}}}}}      @0000qq0&      .*80q3   }}}}}}}}}}",
"}}}}}}}}}}}}}}  +90q0000@     .40q0q-   }}}}}}}}}}",
"}}}}}}}}}}}}}}  .8000009@  }  +9q00q-  }}}}}}}}}}}",
"}}}}}}}}}}}}}}  .7q00000@  }  +9000q-  }}}}}}}}}}}",
"}}}}}}}}}}}}}}}  4qq0000@  }  .9qqqq-  }}}}}}}}}}}",
"}}}}}}}}}}}}}}}  20000q8+  }}  =8884@  }}}}}}}}}}}",
"}}}}}}}}}}}}}}}  &0qqq0-   }}   . .   }}}}}}}}}}}}",
"}}}}}}}}}}}}}}}   *222&.  }}}}       }}}}}}}}}}}}}",
"}}}}}}}}}}}}}}}}          }}}}}}}}}}}}}}}}}}}}}}}}",
"}}}}}}}}}}}}}}}}}       }}}}}}}}}}}}}}}}}}}}}}}}}}",
"}}}}}}}}}}}}}}}}}}}}}}}}}}}}}}}}}}}}}}}}}}}}}}}}}}",
"}}}}}}}}}}}}}}}}}}}}}}}}}}}}}}}}}}}}}}}}}}}}}}}}}}",
"}}}}}}}}}}}}}}}}}}}}}}}}}}}}}}}}}}}}}}}}}}}}}}}}}}",
"}}}}}}}}}}}}}}}}}}}}}}}}}}}}}}}}}}}}}}}}}}}}}}}}}}",
"}}}}}}}}}}}}}}}}}}}}}}}}}}}}}}}}}}}}}}}}}}}}}}}}}}",
"}}}}}}}}}}}}}}}}}}}}}}}}}}}}}}}}}}}}}}}}}}}}}}}}}}",
"}}}}}}}}}}}}}}}}}}}}}}}}}}}}}}}}}}}}}}}}}}}}}}}}}}",
"}}}}}}}}}}}}}}}}}}}}}}}}}}}}}}}}}}}}}}}}}}}}}}}}}}"
};
