/* XPM */
static char *result[] = {
/* columns rows colors chars-per-pixel */
"50 50 41 1 ",
"  c #7D7D76",
". c #76757E",
"X c #7D767D",
"o c #767D7D",
"O c #7D7D7D",
"+ c #807776",
"@ c #837E76",
"# c #887A77",
"$ c #82757D",
"% c #827D7D",
"& c #897C7D",
"* c #778175",
"= c #7C8376",
"- c #76837D",
"; c #7D837D",
": c #76887F",
"> c #7D897C",
", c #848376",
"< c #83827D",
"1 c #89827D",
"2 c #82897D",
"3 c #7D7682",
"4 c #767D82",
"5 c #7D7D82",
"6 c #7C7C8A",
"7 c #837682",
"8 c #887780",
"9 c #827D82",
"0 c #897C82",
"q c #827D89",
"w c #768483",
"e c #7C8282",
"r c #7D8A82",
"t c #758089",
"y c #7D8389",
"u c #7E8888",
"i c #838282",
"p c #898283",
"a c #848983",
"s c #83828A",
"d c #82898A",
/* pixels */
"iipa99p%8345Ow5X;&@50;7s<ys5;%eOwiir X-XOeO;9$59es",
"1%pi9<i%8959%<;19&;<0e5iXys5<<5>=5<%%=wwre7%OXO;9<",
";59i1<=;5<;X;,;%i>506i5i<;599%O;:OOX<<OOOy9p1<#967",
"ee9we--,;6e%X;;Os-:u9%5O<%990<5%,XXO%eO=15;,%<66-5",
"6i<<iu<<i<9eX9e6qa665< i955O999%p,X%9=5i6iX@i;999;",
"5%;;Oi<<=ip$%1<s9%1i9-<iee9%s6O;ii<5<<=>wi<O%1;5<O",
"<O9%%0;,<<1p%1<%9O<2i%<O-eO<p9O5syiww&ayeu:Ois6O X",
"iO;;5$X<-=<i1e1i%XOX9051<<iO%<%6%<ayy0ee9%OO2w775O",
";2,;5%is%e=era59%O%a97Xie%6ewO6Oi<e919%e;<$%i4es1i",
">e;OO%i79e-iwaX%<=<<s3o--5e6OO5traa&,i>sO67%9iX9w%",
"r<=-95q%iyrow>;a>rei99eOX5%ee5o5=a<O99e9 X<;ieo9-3",
"-iX*>56-69;O>=%1r5q=O55+-><=;%%eep9O;9i%X>i5i6ep0s",
"<0yOy65o;<i6%OsO5iw;56oO>2ri<&%O-%esy<%55>9%is<X0p",
"i9i=ie55X<;e<@weOe:o5%*<92i%5059%,w5OX<e>eeO>i%;73",
"@%$ >dpa%a$%21-@ =5XX%w<ias<;1O%<@%99o2eos9%<%%i95",
"X<%Oe;%9i<Xe95i=;O5$5e>-95e-e75e$5-w9iw%we66e59#1O",
"ei=r65@<<@5;OO,>.%w%76ew>6$O19e5%%i1Owyir19es9<s%y",
"e%5-Oi%%95eiei<O4991s%9;5i$Oi39i<5O%<i9X<<#eOi<O6-",
";<%6O%<;;iiO5w995%i2O;X07ei07q09X%9#<75$ewe6-<;O2;",
">X59%5%ww$<6i5e9O5i-<<iiep1eip<e<$i%%5;o6yeoX%65;%",
"eO99i%9i1i99ii<iO66O9r;9ii9e1%3X%<<e%92ei9&>i9X77O",
"y<s9%%<ii9<iie<<;eO@Xw1,>399%55; %%1&9e%9e@-691;>i",
"@9O9X;,i99<<;Oiii<>;-<<<<609=1<>O%91<<55%eOe%s1OO9",
"0$O91%-;s9si%<9ps%><%O79r=@5weXO<9@%i<i5%XXi,&09-O",
"#XO99%X-6Os0i;a%e=oaiO<a-O6Oe156s;%X-99;<O59><%wOp",
"=iO5iy5rOsXi96<O5655e69y55$59-2r<195-e9$0s5ioe55<1",
"e5e%-y3o*><;%%i65w99es995%iXXXO<0ripi5O<<iyiei#7a;",
"e9eO--O3i2wO;;7swi%qe5i%p95q9$O%<9a29&#O5;e959;;e<",
"aOw79=;e<ii<s;OO%wrX9O;1q%6X6a%%%7;999%>9-e9iiq%6i",
"7;5,5e;;9e5$#6e1Xe6eO>;%8%e55d<%$5%%<99ei%ii<>;Xw1",
"$<5%05Oi<;;;=%e559qy5<>OX%-7%eO%%ew%O907s<<-Oe=O,%",
"39w.7%5.X79e1O;@O>i99;6 O;4>;O5;aO%i59<OuiOOO-i9Oi",
"55XoO<<XO9i%9#X7%OO@%6si9s;<<%;%ie;@9i5ps-;9e1&;5O",
"<5>7<<%O45we9%5--9&9O<e1%%a%=9e5X5% -99%09e%%9$aiO",
"@eyeii=:=O<w<s96eX559<=r381i%O%;59901iii%O;%<<<er7",
"=O6e95==;%%8%%9%iO0i%@099wq#a652=-99<e%5%7$#9%<O95",
"55XXiOow9X%1%6-<qip1$5%98ei%9%XiX-%ia9;;19<<O5O=<O",
"oO4>559<-r<99e4wq9,=9X59<eii0aX7e9%%Owy=;<i1O;9X*X",
"5s5yw%19w159#1#X88&>5r9e=e-2&iX5X6a%%53%56i,aee9,;",
"we.w%<i5;=r>6w>%$90X5<%%,1<,96=29O=>1ee%ii,ii9;6%$",
">;X99<aiy<OOwya<,OeOX12si9<;Orw6Oo222<e6e69sii%1<i",
"6<;$$1<7Oi5o=ii=<7<i;re6#s1$*ir>X;ae-6ey2;;2e5wuai",
"s0>O<2O%%9er;><ea;eOX9i%;ss<9<19<iyaqwio3O5$7OOO1i",
"9i%-:<%Oi%5XO*Oie%95;<e5OXi;X,;$ii5%ii5X8O6%06=o%a",
"5X;O-195is&<XOs,9X%5<<%ei<<;;695%i;O9%%59es<ieOe<-",
">%*;>53O%=%95eO;wei;=;w-a&%Oe>;1<11%96165<ee66X-ew",
">i>1,O5e<@%%iw -s%i<X;si>X5X$>ii%9i>9qi>;=;;;=p%%9",
"<@-rs&9e5;O5;O3;O3$%9%1i6Oi6Xi-O9a-i95si9s<5<ewX5e",
"s2=ie;<i1$;rOX%X;$O<-7O5%-5esOe5o==5:eep9<<456;%1w",
"1;>=O609%<<-O%wO;;<;1%9X<9e;i<=i69%i1%%XO>1=w--9X5"
};
