/* XPM */
static char *result[] = {
/* columns rows colors chars-per-pixel */
"50 50 256 2 ",
"   c black",
".  c #010101",
"X  c #020202",
"o  c gray1",
"O  c #040404",
"+  c gray2",
"@  c #060606",
"#  c #070707",
"$  c gray3",
"%  c #090909",
"&  c gray4",
"*  c #0B0B0B",
"=  c #0C0C0C",
"-  c gray5",
";  c #0E0E0E",
":  c gray6",
">  c #101010",
",  c #111111",
"<  c gray7",
"1  c #131313",
"2  c gray8",
"3  c #151515",
"4  c #161616",
"5  c gray9",
"6  c #181818",
"7  c #191919",
"8  c gray10",
"9  c #1B1B1B",
"0  c gray11",
"q  c #1D1D1D",
"w  c #1E1E1E",
"e  c gray12",
"r  c #202020",
"t  c gray13",
"y  c #222222",
"u  c #232323",
"i  c gray14",
"p  c #252525",
"a  c gray15",
"s  c #272727",
"d  c #282828",
"f  c gray16",
"g  c #2A2A2A",
"h  c gray17",
"j  c #2C2C2C",
"k  c #2D2D2D",
"l  c gray18",
"z  c #2F2F2F",
"x  c gray19",
"c  c #313131",
"v  c #323232",
"b  c gray20",
"n  c #343434",
"m  c #353535",
"M  c gray21",
"N  c #373737",
"B  c gray22",
"V  c #393939",
"C  c #3A3A3A",
"Z  c gray23",
"A  c #3C3C3C",
"S  c gray24",
"D  c #3E3E3E",
"F  c #3F3F3F",
"G  c gray25",
"H  c #414141",
"J  c gray26",
"K  c #434343",
"L  c #444444",
"P  c gray27",
"I  c #464646",
"U  c gray28",
"Y  c #484848",
"T  c #494949",
"R  c gray29",
"E  c #4B4B4B",
"W  c #4C4C4C",
"Q  c gray30",
"!  c #4E4E4E",
"~  c gray31",
"^  c #505050",
"/  c #515151",
"(  c gray32",
")  c #535353",
"_  c gray33",
"`  c #555555",
"'  c #565656",
"]  c gray34",
"[  c #585858",
"{  c gray35",
"}  c #5A5A5A",
"|  c #5B5B5B",
" . c gray36",
".. c #5D5D5D",
"X. c gray37",
"o. c #5F5F5F",
"O. c #606060",
"+. c gray38",
"@. c #626262",
"#. c gray39",
"$. c #646464",
"%. c #656565",
"&. c gray40",
"*. c #676767",
"=. c #686868",
"-. c DimGray",
";. c #6A6A6A",
":. c gray42",
">. c #6C6C6C",
",. c #6D6D6D",
"<. c gray43",
"1. c #6F6F6F",
"2. c gray44",
"3. c #717171",
"4. c #727272",
"5. c gray45",
"6. c #747474",
"7. c gray46",
"8. c #767676",
"9. c #777777",
"0. c gray47",
"q. c #797979",
"w. c gray48",
"e. c #7B7B7B",
"r. c #7C7C7C",
"t. c gray49",
"y. c #7E7E7E",
"u. c gray50",
"i. c #808080",
"p. c #818181",
"a. c gray51",
"s. c #838383",
"d. c #848484",
"f. c gray52",
"g. c #868686",
"h. c gray53",
"j. c #888888",
"k. c #898989",
"l. c gray54",
"z. c #8B8B8B",
"x. c gray55",
"c. c #8D8D8D",
"v. c #8E8E8E",
"b. c gray56",
"n. c #909090",
"m. c gray57",
"M. c #929292",
"N. c #939393",
"B. c gray58",
"V. c #959595",
"C. c gray59",
"Z. c #979797",
"A. c #989898",
"S. c gray60",
"D. c #9A9A9A",
"F. c #9B9B9B",
"G. c gray61",
"H. c #9D9D9D",
"J. c gray62",
"K. c #9F9F9F",
"L. c #A0A0A0",
"P. c gray63",
"I. c #A2A2A2",
"U. c gray64",
"Y. c #A4A4A4",
"T. c #A5A5A5",
"R. c gray65",
"E. c #A7A7A7",
"W. c gray66",
"Q. c #A9A9A9",
"!. c #AAAAAA",
"~. c gray67",
"^. c #ACACAC",
"/. c gray68",
"(. c #AEAEAE",
"). c #AFAFAF",
"_. c gray69",
"`. c #B1B1B1",
"'. c #B2B2B2",
"]. c gray70",
"[. c #B4B4B4",
"{. c gray71",
"}. c #B6B6B6",
"|. c #B7B7B7",
" X c gray72",
".X c #B9B9B9",
"XX c gray73",
"oX c #BBBBBB",
"OX c #BCBCBC",
"+X c gray74",
"@X c gray",
"#X c gray75",
"$X c #C0C0C0",
"%X c #C1C1C1",
"&X c gray76",
"*X c #C3C3C3",
"=X c gray77",
"-X c #C5C5C5",
";X c #C6C6C6",
":X c gray78",
">X c #C8C8C8",
",X c gray79",
"<X c #CACACA",
"1X c #CBCBCB",
"2X c gray80",
"3X c #CDCDCD",
"4X c #CECECE",
"5X c gray81",
"6X c #D0D0D0",
"7X c gray82",
"8X c #D2D2D2",
"9X c LightGray",
"0X c gray83",
"qX c #D5D5D5",
"wX c gray84",
"eX c #D7D7D7",
"rX c #D8D8D8",
"tX c gray85",
"yX c #DADADA",
"uX c gray86",
"iX c gainsboro",
"pX c #DDDDDD",
"aX c gray87",
"sX c #DFDFDF",
"dX c gray88",
"fX c #E1E1E1",
"gX c #E2E2E2",
"hX c gray89",
"jX c #E4E4E4",
"kX c gray90",
"lX c #E6E6E6",
"zX c #E7E7E7",
"xX c gray91",
"cX c #E9E9E9",
"vX c #EAEAEA",
"bX c gray92",
"nX c #ECECEC",
"mX c gray93",
"MX c #EEEEEE",
"NX c #EFEFEF",
"BX c gray94",
"VX c #F1F1F1",
"CX c gray95",
"ZX c #F3F3F3",
"AX c #F4F4F4",
"SX c gray96",
"DX c #F6F6F6",
"FX c gray97",
"GX c #F8F8F8",
"HX c #F9F9F9",
"JX c gray98",
"KX c #FBFBFB",
"LX c gray99",
"PX c #FDFDFD",
"IX c #FEFEFE",
"UX c white",
/* pixels */
"# 4 2 2 1 + 3 1 1 3 % 5 , # 5 2 < 2 2 # 4 , $ 5 7 1 1 4 % 4 1 2 $ 5 2 6 4 # 4 7 3 % 6 3 $ 6 7 7 4 + ",
"4 ;.X...} 6 @. .| o.f :.~ e 1...' }  .t :.) i ,.6. .{ @.f %...X.y >.$.7.*.t :.8.%.f >.@.y =.7.8.<.5 ",
"< ) ' Y B > ~ _ P A q ` Z 5 ] ` L P D 5 ` ! w _  .) I G 6 L { W 9 [ ;..._ 8 ) X.^ r ` J 2 L | @.;.4 ",
"# w e 1 q 3 e y t , 9 s y q i 5 q > q 6 a s 8 < i u : 7 3 w s r q p 9 i t 0 y 2 u q r 0 1 ; i f f % ",
"> W ~ u @.| } o.O.p *.7.8.6.&.a W 5  .#.<.,.| 3  .o.1 W } o.6.+.2.&.p ..X.5.| 4 X.<.| } Y 2 O.7.<.5 ",
"= D R q ^ ] [ / A 8 ^ } :.o.~ 7 l ; W [ ` P N = C I > Y {  .,.} [ W 6 D } -.V * Z ' ] ) N ; R X.*.4 ",
"# 9 9 2 0 e 1 q 6 2 9 , t 2 w 6 9 5 q 1 e q : 4 0 e 7 q 2 t p t t t 3 ; 7 u q 5 8 1 e q ; 4 r y y # ",
"5 >..._ | o.w +.} ..` 4 W r -.4.7.4.@.e *.o.p $.6.4.1.#.a %.2.1.>.>. .9 D &.3.3...p *.@.w #.2.4.*.3 ",
"4 =.} U / S 4 / [ ' N - z 6 _ ..<...Q 7 ( D 4 J :.X.| ~ w / { ] P J C 4 C L { [ S 9 ) ~ 3 F ' | ) , ",
"% f u e 5 r 0 t 2 i t 6 : 7 s d h p 2 6 r r 5 y g p 3 t 7 t 3 u w q 0 0 r 1 p s w 5 1 y 9 q p u u # ",
"3 &.o.[ a =.4.' 3 X.2.#.r -.1.1.3.#.e | ..*.#.6.8. .4  .+._ 4 o.| _ ` >.O.w o.>.O. .3 | 2.| *.+.;.4 ",
"> ~ [ S 0 _ ] N = D ) D 7 X.Y [ | ^ 3 D } [ X.5.4.Z : E ' M : ! _ F J K V 1 Z K _ W : S { _ Y } -.4 ",
"@ 0 3 8 8 e r 9 1 > w 0 3 4 q r 0 8 2 : e t t i 5 8 3 w t 8 , 5 < 9 5 > 0 < 6 9 2 0 4 8 1 e 8 0 t $ ",
"2 [ p #.4.<.2.<.O.i +.2.o.e &.=.` { ..w @.2.2.-.w ..2.2.2.<.] P 0 @.T t o.] ..;.a o.2...q O.] O.-.4 ",
"- B 8 ~ | |  .[ F 4 J | ! 4 G K Y [ W 3 D ' O.>.9 D | | o.>.P m 1 F V 5 F I | ;.r J } D 1 F Y 3.<.4 ",
"@ q 9 p s p 5 i 0 3 q 3 y 8 y y e 3 r 3 0 t s h 9 t p 6 a s > 6 2 9 0 8 e 1 p g 0 e 3 w 8 t u j f % ",
"3 %.4.1.:.O.w  .' ' [ 3  .>.2.4.+.5 o.[ ) } ;.,.6.9.,.s #.' 2 ^ ` / | 1.o.q +.2.2.} 3  .3.2.7.3.@.2 ",
"< ' } ] U S 1 Z G Y I : A T ' O.O.6 o.I L _ [ T 2.9.:.i W N 1 X.U P ' _ H 1 L { } V = S } o.3.} G - ",
"@ q e 0 3 = 1 8 4 < 9 : 5 5 < 9 q < e , 0 e w 7 t 8 t 3 8 9 3 r , 0 q 2 8 3 6 w 4 7 3 9 0 w t 3 7 @ ",
"5 =.,.| F 1 X.:.E r X..._ G > E [  .{ r &.;.=.' [ q o.| { ,.1.} w %.o.p +.=...#.p o.-.-.[ }  .p { 3 ",
"5 ,.+.] V - F ' D 4 T <.W N : E X.4.K 6 ( W ] P S 2 J [ } X.{ A 2 U E 8 G R } / 9 D P U ] { ^ 9 V ; ",
"% f s t 9 < r a t 4 3 g r e 6 y 9 h t 3 i r 6 r 0 6 r 5 q a a r 5 6 1 1 9 q u p 8 q , w u a p 8 q @ ",
"4 :.,.[ / { :.:.:. .p @.X.>.2.X.p %.,.X.4.X.i +.X.:.$.w G :.1.1.$.Z 6 R ( /  .<.,.[ 3 ' X.>.<.3.:.4 ",
"5 -.@._ Y [ [ Y I Z 5 J ] ..{ D 5 H ] o.4.L 4 J ] [ J 4 A }  .{ I B 3 Z J U ` } T C - S [  . .O.>.5 ",
"$ r 5 0 8 w 0 , 0 8 3 0 w 3 e 8 > 4 9 e 5 7 , ; 9 4 8 2 6 0 q 2 8 8 > 4 4 , q 9 , 5 : 8 q 1 q 0 q @ ",
"3 } i ] ' ' ` r $.<.<.<.@.r -.,.[ / ] ] 2 | | 4 W e +.,.] { O.e *.=.] ( T 9 } W r o.} :.X.3 ` ] T : ",
"- C 6 F Y ' S 2 L | X.O.#.p 1.+.' I { Q ; S W > c 3 J { } .._ e #.Q _ U Z 1 G S 9 _ | @.@.< F ` G - ",
"@ q 5 0 w 3 4 5 r a s a 7 < a u t < u i 4 e u 4 q 2 , r 8 i r 4 a 6 4 0 9 1 0 > 4 p i 8 p < 9 t w @ ",
"3 %.,..._ > D :.1.2.1.o.6 A ^  ...5 { >.2.2.<.1.4.O.4 W a @.'  .%.H 7 T ) ' ` 3  .1.@.r | _ / | $.3 ",
": R / Q v * M / ) ~ ! B > x A / ` > n G ~ ^ ^ ( ` ` > j 8 E ! Q ` | 8 n Z S v = V ^ R 3 n A D Q T : ",
"@ 4 6 2 > - 2 > * 5 5 , - 3 3 ; 5 , < & 4 3 3 = 3 4 - > : 5 4 - 5 5 < 1 % 1 2 , 1 ; 4 ; 2 4 2 - 2 O ",
"4 ;.,.' ) _ +.M , | &._ { :.%.p o.,. .w O...{ 4 { { / / ' -...q | } ,.X.5 @.1.1.+.a $...>.1.O.p [ 2 ",
"3 O.` E S S D z = M F A Q ( W 6 Z ~ V < A Q L > L W A Z S D N , Z ! ` _ 3 [ ' ( U 0 W ^ ( ( T 6 n = ",
"+ 5 7 4 % > < , ; , 1 2 * 5 6 2 4 4 % , 4 6 4 : < 2 5 2 = 2 , - = $ < 2 : > * 5 6 2 4 = 1 * 3 1 : O ",
"3 @.2.} y _ / _ | } } X.e O.1.,.1.%.r o.1.1.:.[ [ ] :.&.a .._ ) C > Y ' _ D 0 *.1.1.$.r ! 4 | 2.` , ",
", W ) m r O.J L &.%.~ V , Z _ ( { +.6 V _ ( / ) o.H K [ 0 V D _ / , U / / ) 7 W ) ( E 6 C ; C *.O.1 ",
"+ 4 6 2 : 6 * 2 4 > 3 > - , = 4 6 7 ; , 2 2 ; 4 5 2 & 4 < 2 1 ; 5 , 2 2 3 6 < 4 3 ; 4 , < : , 7 7 + ",
"5 #.<.-...o.w | Y e { ) } ` 3 | >.-.[ ^ _ ] i ..{ [ 3  .<.<. .w %.&.` [ [ ;.2.:.+.p O.*._ ~ { -.O.2 ",
"> E _ _ ^ Y 2 B m 4 C S Q K ; M L ) ~ F S B 4 A H K , U _ ^ S 7 [ H L O.( ( ) ] | 0 C D F S Q / A = ",
"+ 2 * > 4 < : , , : , $ 3 2 , < * 5 3 & 2 , ; > % 2 : < 1 1 , < 6 2 = 3 * 4 5 2 2 : < 3 1 $ 3 6 2 O ",
"2 [ e K %.` / ^ / { ` 4 X...>. .p %.o.t *.[ ) R 8 [ ` / [ ` ] ;.,.X.p Q 4 O.-.' ` _ ` &.[ 2 { 1.$.3 ",
"= m 0 ' ' ! F A G ~ P 2 { _ _ Z 9 / T 0 $.) F N , M D K O.) ( _ ^ S 5 z : T ' / / W D J M - Z ( Q , ",
"+ < > 3 2 1 , 2 1 ; 2 > 5 ; 4 1 - 4 4 , 5 ; 1 1 - > 1 = 5 5 4 ; 2 > = : : 1 ; 3 2 2 1 * , * > 1 3 + ",
"2 #.*.( ^ / ` >.@.p O.,.{ r -.*.| ;.>.<.%.p  .:.' ' ..i ..-. .e X.( ( _ ) ` e +.' ] X.q ' ) ~ ] O.2 ",
"= Z G F D K ~ _ W q Q ) B 9 @.E ^ ` ) | $.w A ( ~ H A 8 T L C 8 { G G Q D N 5 ~ ^ J V < V F D / Q > ",
"@ 1 2 3 4 2 ; < < < 1 * < 1 7 4 4 1 1 2 4 < 3 4 = 1 2 : , & 1 < 3 1 3 2 $ < : 1 , * 2 , , , , 5 3 O ",
"3 #.:.,.>...8 I ( =._ 3 O.,.>.>.=.{ ] { ' %.=.O.w ..=.` J i ;.-.` ( *._ 3 [ / ~ P t O.&./ ^ ` =.#.2 ",
"> Q [ ] _ A < V G K N < ..} ' ' | ;.>.&.( P L A 1 C K F m y *.{ ~ G J N - V D H N 5 F K D J ! ' ! > ",
"X % * & & # X # $ # @ X = * & & * ; : - * $ # @ X @ # # @ O - * & $ # @ X @ # $ # o # # # $ & & % X ",
"                                                                                                    "
};
